<mxfile host="Electron" modified="2023-11-24T15:27:12.862Z" agent="Mozilla/5.0 (Windows NT 10.0; Win64; x64) AppleWebKit/537.36 (KHTML, like Gecko) draw.io/22.0.3 Chrome/114.0.5735.289 Electron/25.8.4 Safari/537.36" etag="WbEsj689kMTuzuphnWYT" version="22.0.3" type="device">
  <diagram name="Trang-1" id="jdwA5vypR48VeuwpfjTU">
    <mxGraphModel dx="1036" dy="606" grid="1" gridSize="10" guides="1" tooltips="1" connect="1" arrows="1" fold="1" page="1" pageScale="1" pageWidth="1100" pageHeight="850" math="1" shadow="0">
      <root>
        <mxCell id="0" />
        <mxCell id="1" parent="0" />
        <mxCell id="NV5PZMqExWxVKoS1mkhp-1" value="" style="pointerEvents=1;fillColor=strokeColor;verticalLabelPosition=bottom;shadow=0;dashed=0;align=center;html=1;verticalAlign=top;shape=mxgraph.electrical.diodes.diode;direction=south;points=[[0,0.5,0,0,0],[1,0.5,0,0,0]];" vertex="1" parent="1">
          <mxGeometry x="321" y="270" width="30" height="60" as="geometry" />
        </mxCell>
        <mxCell id="NV5PZMqExWxVKoS1mkhp-2" value="" style="pointerEvents=1;verticalLabelPosition=bottom;shadow=0;dashed=0;align=center;html=1;verticalAlign=top;shape=mxgraph.electrical.signal_sources.source;aspect=fixed;points=[[0.5,0,0],[1,0.5,0],[0.5,1,0],[0,0.5,0]];elSignalType=dc2;elSourceType=dependent;" vertex="1" parent="1">
          <mxGeometry x="500" y="260" width="60" height="60" as="geometry" />
        </mxCell>
        <mxCell id="NV5PZMqExWxVKoS1mkhp-3" value="" style="pointerEvents=1;verticalLabelPosition=bottom;shadow=0;dashed=0;align=center;html=1;verticalAlign=top;shape=mxgraph.electrical.miscellaneous.batteryStack;direction=north;" vertex="1" parent="1">
          <mxGeometry x="130" y="250" width="60" height="70" as="geometry" />
        </mxCell>
        <mxCell id="NV5PZMqExWxVKoS1mkhp-24" style="edgeStyle=orthogonalEdgeStyle;shape=connector;rounded=0;orthogonalLoop=1;jettySize=auto;html=1;exitX=0;exitY=0.5;exitDx=0;exitDy=0;labelBackgroundColor=default;strokeColor=default;align=center;verticalAlign=middle;fontFamily=Helvetica;fontSize=11;fontColor=default;endArrow=none;endFill=0;" edge="1" parent="1" source="NV5PZMqExWxVKoS1mkhp-4" target="NV5PZMqExWxVKoS1mkhp-10">
          <mxGeometry relative="1" as="geometry">
            <Array as="points">
              <mxPoint x="680" y="470" />
            </Array>
          </mxGeometry>
        </mxCell>
        <mxCell id="NV5PZMqExWxVKoS1mkhp-4" value="" style="pointerEvents=1;verticalLabelPosition=bottom;shadow=0;dashed=0;align=center;html=1;verticalAlign=top;shape=mxgraph.electrical.miscellaneous.batteryStack;direction=north;" vertex="1" parent="1">
          <mxGeometry x="650" y="340" width="60" height="70" as="geometry" />
        </mxCell>
        <mxCell id="NV5PZMqExWxVKoS1mkhp-5" value="" style="pointerEvents=1;verticalLabelPosition=bottom;shadow=0;dashed=0;align=center;html=1;verticalAlign=top;shape=mxgraph.electrical.resistors.resistor_2;direction=south;" vertex="1" parent="1">
          <mxGeometry x="670" y="180" width="20" height="100" as="geometry" />
        </mxCell>
        <mxCell id="NV5PZMqExWxVKoS1mkhp-17" style="edgeStyle=orthogonalEdgeStyle;shape=connector;rounded=0;orthogonalLoop=1;jettySize=auto;html=1;exitX=1;exitY=0.5;exitDx=0;exitDy=0;exitPerimeter=0;labelBackgroundColor=default;strokeColor=default;align=center;verticalAlign=middle;fontFamily=Helvetica;fontSize=11;fontColor=default;endArrow=none;endFill=0;" edge="1" parent="1" source="NV5PZMqExWxVKoS1mkhp-6" target="NV5PZMqExWxVKoS1mkhp-9">
          <mxGeometry relative="1" as="geometry" />
        </mxCell>
        <mxCell id="NV5PZMqExWxVKoS1mkhp-6" value="R&lt;sub&gt;B&lt;/sub&gt;" style="pointerEvents=1;verticalLabelPosition=bottom;shadow=0;dashed=0;align=center;html=1;verticalAlign=top;shape=mxgraph.electrical.resistors.resistor_2;fontSize=22;fontFamily=Times New Roman;" vertex="1" parent="1">
          <mxGeometry x="200" y="190" width="100" height="20" as="geometry" />
        </mxCell>
        <mxCell id="NV5PZMqExWxVKoS1mkhp-38" value="" style="edgeStyle=orthogonalEdgeStyle;shape=connector;rounded=0;orthogonalLoop=1;jettySize=auto;html=1;labelBackgroundColor=default;strokeColor=default;align=center;verticalAlign=middle;fontFamily=Helvetica;fontSize=11;fontColor=default;endArrow=none;endFill=0;" edge="1" parent="1" source="NV5PZMqExWxVKoS1mkhp-8" target="NV5PZMqExWxVKoS1mkhp-10">
          <mxGeometry relative="1" as="geometry" />
        </mxCell>
        <mxCell id="NV5PZMqExWxVKoS1mkhp-8" value="E&#xa;&#xa;" style="shape=waypoint;sketch=0;size=6;pointerEvents=1;points=[];fillColor=none;resizable=0;rotatable=0;perimeter=centerPerimeter;snapToPoint=1;fontFamily=Times New Roman;fontSize=22;fontColor=default;strokeColor=default;strokeWidth=1;" vertex="1" parent="1">
          <mxGeometry x="420" y="380" width="20" height="20" as="geometry" />
        </mxCell>
        <mxCell id="NV5PZMqExWxVKoS1mkhp-9" value="B&#xa;&#xa;" style="shape=waypoint;sketch=0;size=6;pointerEvents=1;points=[];fillColor=none;resizable=0;rotatable=0;perimeter=centerPerimeter;snapToPoint=1;fontFamily=Times New Roman;fontSize=22;fontColor=default;" vertex="1" parent="1">
          <mxGeometry x="326" y="190" width="20" height="20" as="geometry" />
        </mxCell>
        <mxCell id="NV5PZMqExWxVKoS1mkhp-10" value="" style="shape=waypoint;sketch=0;size=6;pointerEvents=1;points=[];fillColor=none;resizable=0;rotatable=0;perimeter=centerPerimeter;snapToPoint=1;fontFamily=Times New Roman;fontSize=22;fontColor=default;strokeColor=default;strokeWidth=1;" vertex="1" parent="1">
          <mxGeometry x="420" y="460" width="20" height="20" as="geometry" />
        </mxCell>
        <mxCell id="NV5PZMqExWxVKoS1mkhp-14" style="edgeStyle=orthogonalEdgeStyle;shape=connector;rounded=0;orthogonalLoop=1;jettySize=auto;html=1;exitX=0.5;exitY=1;exitDx=0;exitDy=0;exitPerimeter=0;entryX=0.652;entryY=0.383;entryDx=0;entryDy=0;entryPerimeter=0;labelBackgroundColor=default;strokeColor=default;align=center;verticalAlign=middle;fontFamily=Helvetica;fontSize=11;fontColor=default;endArrow=none;endFill=0;" edge="1" parent="1" source="NV5PZMqExWxVKoS1mkhp-2" target="NV5PZMqExWxVKoS1mkhp-8">
          <mxGeometry relative="1" as="geometry">
            <Array as="points">
              <mxPoint x="530" y="390" />
            </Array>
          </mxGeometry>
        </mxCell>
        <mxCell id="NV5PZMqExWxVKoS1mkhp-16" style="edgeStyle=orthogonalEdgeStyle;shape=connector;rounded=0;orthogonalLoop=1;jettySize=auto;html=1;exitX=0;exitY=0.5;exitDx=0;exitDy=0;exitPerimeter=0;entryX=0.386;entryY=1.083;entryDx=0;entryDy=0;entryPerimeter=0;labelBackgroundColor=default;strokeColor=default;align=center;verticalAlign=middle;fontFamily=Helvetica;fontSize=11;fontColor=default;endArrow=none;endFill=0;" edge="1" parent="1" source="NV5PZMqExWxVKoS1mkhp-1" target="NV5PZMqExWxVKoS1mkhp-9">
          <mxGeometry relative="1" as="geometry" />
        </mxCell>
        <mxCell id="NV5PZMqExWxVKoS1mkhp-20" style="edgeStyle=orthogonalEdgeStyle;shape=connector;rounded=0;orthogonalLoop=1;jettySize=auto;html=1;exitX=1;exitY=0.5;exitDx=0;exitDy=0;entryX=0;entryY=0.5;entryDx=0;entryDy=0;entryPerimeter=0;labelBackgroundColor=default;strokeColor=default;align=center;verticalAlign=middle;fontFamily=Helvetica;fontSize=11;fontColor=default;endArrow=none;endFill=0;" edge="1" parent="1" source="NV5PZMqExWxVKoS1mkhp-3" target="NV5PZMqExWxVKoS1mkhp-6">
          <mxGeometry relative="1" as="geometry">
            <Array as="points">
              <mxPoint x="160" y="230" />
              <mxPoint x="160" y="230" />
            </Array>
          </mxGeometry>
        </mxCell>
        <mxCell id="NV5PZMqExWxVKoS1mkhp-21" style="edgeStyle=orthogonalEdgeStyle;shape=connector;rounded=0;orthogonalLoop=1;jettySize=auto;html=1;exitX=1;exitY=0.5;exitDx=0;exitDy=0;entryX=1;entryY=0.5;entryDx=0;entryDy=0;entryPerimeter=0;labelBackgroundColor=default;strokeColor=default;align=center;verticalAlign=middle;fontFamily=Helvetica;fontSize=11;fontColor=default;endArrow=none;endFill=0;" edge="1" parent="1" source="NV5PZMqExWxVKoS1mkhp-4" target="NV5PZMqExWxVKoS1mkhp-5">
          <mxGeometry relative="1" as="geometry" />
        </mxCell>
        <mxCell id="NV5PZMqExWxVKoS1mkhp-22" style="edgeStyle=orthogonalEdgeStyle;shape=connector;rounded=0;orthogonalLoop=1;jettySize=auto;html=1;exitX=0;exitY=0.5;exitDx=0;exitDy=0;exitPerimeter=0;entryX=0.5;entryY=0;entryDx=0;entryDy=0;entryPerimeter=0;labelBackgroundColor=default;strokeColor=default;align=center;verticalAlign=middle;fontFamily=Helvetica;fontSize=11;fontColor=default;endArrow=none;endFill=0;" edge="1" parent="1" source="NV5PZMqExWxVKoS1mkhp-5" target="NV5PZMqExWxVKoS1mkhp-2">
          <mxGeometry relative="1" as="geometry">
            <Array as="points">
              <mxPoint x="680" y="160" />
              <mxPoint x="530" y="160" />
            </Array>
          </mxGeometry>
        </mxCell>
        <mxCell id="NV5PZMqExWxVKoS1mkhp-23" value="&lt;font face=&quot;Times New Roman&quot;&gt;&lt;span style=&quot;font-size: 22px;&quot;&gt;R&lt;sub&gt;C&lt;/sub&gt;&lt;/span&gt;&lt;/font&gt;" style="text;html=1;align=center;verticalAlign=middle;resizable=0;points=[];autosize=1;strokeColor=none;fillColor=none;fontSize=11;fontFamily=Helvetica;fontColor=default;" vertex="1" parent="1">
          <mxGeometry x="685" y="213" width="50" height="40" as="geometry" />
        </mxCell>
        <mxCell id="NV5PZMqExWxVKoS1mkhp-25" style="edgeStyle=orthogonalEdgeStyle;shape=connector;rounded=0;orthogonalLoop=1;jettySize=auto;html=1;exitX=0;exitY=0.5;exitDx=0;exitDy=0;entryX=0.072;entryY=0.107;entryDx=0;entryDy=0;entryPerimeter=0;labelBackgroundColor=default;strokeColor=default;align=center;verticalAlign=middle;fontFamily=Helvetica;fontSize=11;fontColor=default;endArrow=none;endFill=0;" edge="1" parent="1" source="NV5PZMqExWxVKoS1mkhp-3" target="NV5PZMqExWxVKoS1mkhp-10">
          <mxGeometry relative="1" as="geometry">
            <Array as="points">
              <mxPoint x="160" y="470" />
            </Array>
          </mxGeometry>
        </mxCell>
        <mxCell id="NV5PZMqExWxVKoS1mkhp-27" value="&lt;font face=&quot;Times New Roman&quot;&gt;&lt;span style=&quot;font-size: 22px;&quot;&gt;V&lt;sub&gt;CC&lt;/sub&gt;&lt;/span&gt;&lt;/font&gt;" style="text;html=1;align=center;verticalAlign=middle;resizable=0;points=[];autosize=1;strokeColor=none;fillColor=none;fontSize=11;fontFamily=Helvetica;fontColor=default;" vertex="1" parent="1">
          <mxGeometry x="705" y="355" width="60" height="40" as="geometry" />
        </mxCell>
        <mxCell id="NV5PZMqExWxVKoS1mkhp-31" value="" style="group" vertex="1" connectable="0" parent="1">
          <mxGeometry x="705" y="320" width="40" height="90" as="geometry" />
        </mxCell>
        <mxCell id="NV5PZMqExWxVKoS1mkhp-28" value="&lt;font face=&quot;Times New Roman&quot;&gt;&lt;span style=&quot;font-size: 22px;&quot;&gt;+&lt;/span&gt;&lt;/font&gt;" style="text;html=1;align=center;verticalAlign=middle;resizable=0;points=[];autosize=1;strokeColor=none;fillColor=none;fontSize=11;fontFamily=Helvetica;fontColor=default;" vertex="1" parent="NV5PZMqExWxVKoS1mkhp-31">
          <mxGeometry width="40" height="40" as="geometry" />
        </mxCell>
        <mxCell id="NV5PZMqExWxVKoS1mkhp-30" value="&lt;font face=&quot;Times New Roman&quot;&gt;&lt;span style=&quot;font-size: 22px;&quot;&gt;_&lt;/span&gt;&lt;/font&gt;" style="text;html=1;align=center;verticalAlign=middle;resizable=0;points=[];autosize=1;strokeColor=none;fillColor=none;fontSize=11;fontFamily=Helvetica;fontColor=default;" vertex="1" parent="NV5PZMqExWxVKoS1mkhp-31">
          <mxGeometry x="5" y="50" width="30" height="40" as="geometry" />
        </mxCell>
        <mxCell id="NV5PZMqExWxVKoS1mkhp-32" value="" style="group" vertex="1" connectable="0" parent="1">
          <mxGeometry x="550" y="240" width="65" height="90" as="geometry" />
        </mxCell>
        <mxCell id="NV5PZMqExWxVKoS1mkhp-33" value="&lt;font face=&quot;Times New Roman&quot;&gt;&lt;span style=&quot;font-size: 22px;&quot;&gt;+&lt;/span&gt;&lt;/font&gt;" style="text;html=1;align=center;verticalAlign=middle;resizable=0;points=[];autosize=1;strokeColor=none;fillColor=none;fontSize=11;fontFamily=Helvetica;fontColor=default;" vertex="1" parent="NV5PZMqExWxVKoS1mkhp-32">
          <mxGeometry width="40" height="40" as="geometry" />
        </mxCell>
        <mxCell id="NV5PZMqExWxVKoS1mkhp-34" value="&lt;font face=&quot;Times New Roman&quot;&gt;&lt;span style=&quot;font-size: 22px;&quot;&gt;_&lt;/span&gt;&lt;/font&gt;" style="text;html=1;align=center;verticalAlign=middle;resizable=0;points=[];autosize=1;strokeColor=none;fillColor=none;fontSize=11;fontFamily=Helvetica;fontColor=default;" vertex="1" parent="NV5PZMqExWxVKoS1mkhp-32">
          <mxGeometry x="5" y="50" width="30" height="40" as="geometry" />
        </mxCell>
        <mxCell id="NV5PZMqExWxVKoS1mkhp-57" value="&lt;font face=&quot;Times New Roman&quot;&gt;&lt;span style=&quot;font-size: 22px;&quot;&gt;V&lt;sub&gt;CE&lt;/sub&gt;&lt;/span&gt;&lt;/font&gt;" style="text;html=1;align=center;verticalAlign=middle;resizable=0;points=[];autosize=1;strokeColor=none;fillColor=none;fontSize=11;fontFamily=Helvetica;fontColor=default;" vertex="1" parent="NV5PZMqExWxVKoS1mkhp-32">
          <mxGeometry x="5" y="31" width="60" height="40" as="geometry" />
        </mxCell>
        <mxCell id="NV5PZMqExWxVKoS1mkhp-35" value="" style="group" vertex="1" connectable="0" parent="1">
          <mxGeometry x="102" y="236" width="40" height="90" as="geometry" />
        </mxCell>
        <mxCell id="NV5PZMqExWxVKoS1mkhp-36" value="&lt;font face=&quot;Times New Roman&quot;&gt;&lt;span style=&quot;font-size: 22px;&quot;&gt;+&lt;/span&gt;&lt;/font&gt;" style="text;html=1;align=center;verticalAlign=middle;resizable=0;points=[];autosize=1;strokeColor=none;fillColor=none;fontSize=11;fontFamily=Helvetica;fontColor=default;" vertex="1" parent="NV5PZMqExWxVKoS1mkhp-35">
          <mxGeometry width="40" height="40" as="geometry" />
        </mxCell>
        <mxCell id="NV5PZMqExWxVKoS1mkhp-37" value="&lt;font face=&quot;Times New Roman&quot;&gt;&lt;span style=&quot;font-size: 22px;&quot;&gt;_&lt;/span&gt;&lt;/font&gt;" style="text;html=1;align=center;verticalAlign=middle;resizable=0;points=[];autosize=1;strokeColor=none;fillColor=none;fontSize=11;fontFamily=Helvetica;fontColor=default;" vertex="1" parent="NV5PZMqExWxVKoS1mkhp-35">
          <mxGeometry x="5" y="50" width="30" height="40" as="geometry" />
        </mxCell>
        <mxCell id="NV5PZMqExWxVKoS1mkhp-59" value="&lt;font face=&quot;Times New Roman&quot;&gt;&lt;span style=&quot;font-size: 22px;&quot;&gt;V&lt;sub&gt;BB&lt;/sub&gt;&lt;/span&gt;&lt;/font&gt;" style="text;html=1;align=center;verticalAlign=middle;resizable=0;points=[];autosize=1;strokeColor=none;fillColor=none;fontSize=11;fontFamily=Helvetica;fontColor=default;" vertex="1" parent="NV5PZMqExWxVKoS1mkhp-35">
          <mxGeometry x="-31" y="31" width="60" height="40" as="geometry" />
        </mxCell>
        <mxCell id="NV5PZMqExWxVKoS1mkhp-40" value="" style="edgeStyle=orthogonalEdgeStyle;shape=connector;rounded=0;orthogonalLoop=1;jettySize=auto;html=1;labelBackgroundColor=default;strokeColor=default;align=center;verticalAlign=middle;fontFamily=Helvetica;fontSize=11;fontColor=default;endArrow=none;endFill=0;" edge="1" parent="1" source="NV5PZMqExWxVKoS1mkhp-39" target="NV5PZMqExWxVKoS1mkhp-8">
          <mxGeometry relative="1" as="geometry" />
        </mxCell>
        <mxCell id="NV5PZMqExWxVKoS1mkhp-39" value="" style="pointerEvents=1;verticalLabelPosition=bottom;shadow=0;dashed=0;align=center;html=1;verticalAlign=top;shape=mxgraph.electrical.signal_sources.signal_ground;fontFamily=Helvetica;fontSize=11;fontColor=default;" vertex="1" parent="1">
          <mxGeometry x="407.5" y="480" width="45" height="30" as="geometry" />
        </mxCell>
        <mxCell id="NV5PZMqExWxVKoS1mkhp-41" value="" style="group" vertex="1" connectable="0" parent="1">
          <mxGeometry x="575" y="150" width="60" height="30" as="geometry" />
        </mxCell>
        <mxCell id="NV5PZMqExWxVKoS1mkhp-42" value="" style="endArrow=classic;html=1;rounded=0;labelBackgroundColor=default;strokeColor=default;align=center;verticalAlign=middle;fontFamily=Helvetica;fontSize=22;fontColor=default;shape=connector;movable=1;resizable=1;rotatable=1;deletable=1;editable=1;locked=0;connectable=1;" edge="1" parent="NV5PZMqExWxVKoS1mkhp-41">
          <mxGeometry width="50" height="50" relative="1" as="geometry">
            <mxPoint x="60" y="30" as="sourcePoint" />
            <mxPoint y="30" as="targetPoint" />
          </mxGeometry>
        </mxCell>
        <mxCell id="NV5PZMqExWxVKoS1mkhp-43" value="&lt;span style=&quot;font-weight: 400;&quot;&gt;I&lt;sub&gt;C&lt;/sub&gt;&lt;/span&gt;" style="text;html=1;strokeColor=none;fillColor=none;align=center;verticalAlign=middle;whiteSpace=wrap;rounded=0;fontSize=22;fontFamily=Times New Roman;fontColor=default;fontStyle=3;movable=1;resizable=1;rotatable=1;deletable=1;editable=1;locked=0;connectable=1;" vertex="1" parent="1">
          <mxGeometry x="590" y="185" width="30" height="30" as="geometry" />
        </mxCell>
        <mxCell id="NV5PZMqExWxVKoS1mkhp-44" value="" style="group" vertex="1" connectable="0" parent="1">
          <mxGeometry x="222.5" y="175" width="55" height="35" as="geometry" />
        </mxCell>
        <mxCell id="NV5PZMqExWxVKoS1mkhp-45" value="" style="endArrow=classic;html=1;rounded=0;labelBackgroundColor=default;strokeColor=default;align=center;verticalAlign=middle;fontFamily=Helvetica;fontSize=22;fontColor=default;shape=connector;movable=1;resizable=1;rotatable=1;deletable=1;editable=1;locked=0;connectable=1;" edge="1" parent="NV5PZMqExWxVKoS1mkhp-44">
          <mxGeometry width="50" height="50" relative="1" as="geometry">
            <mxPoint as="sourcePoint" />
            <mxPoint x="55" as="targetPoint" />
          </mxGeometry>
        </mxCell>
        <mxCell id="NV5PZMqExWxVKoS1mkhp-46" value="&lt;span style=&quot;font-weight: 400;&quot;&gt;I&lt;sub&gt;B&lt;/sub&gt;&lt;/span&gt;" style="text;html=1;strokeColor=none;fillColor=none;align=center;verticalAlign=middle;whiteSpace=wrap;rounded=0;fontSize=22;fontFamily=Times New Roman;fontColor=default;fontStyle=3;movable=1;resizable=1;rotatable=1;deletable=1;editable=1;locked=0;connectable=1;" vertex="1" parent="1">
          <mxGeometry x="235" y="140" width="30" height="30" as="geometry" />
        </mxCell>
        <mxCell id="NV5PZMqExWxVKoS1mkhp-47" value="" style="group" vertex="1" connectable="0" parent="1">
          <mxGeometry x="450" y="410" width="32.5" height="44.18000000000001" as="geometry" />
        </mxCell>
        <mxCell id="NV5PZMqExWxVKoS1mkhp-48" value="" style="endArrow=classic;html=1;rounded=0;labelBackgroundColor=default;strokeColor=default;align=center;verticalAlign=middle;fontFamily=Helvetica;fontSize=22;fontColor=default;shape=connector;movable=1;resizable=1;rotatable=1;deletable=1;editable=1;locked=0;connectable=1;" edge="1" parent="NV5PZMqExWxVKoS1mkhp-47">
          <mxGeometry width="50" height="50" relative="1" as="geometry">
            <mxPoint as="sourcePoint" />
            <mxPoint y="44.18000000000001" as="targetPoint" />
          </mxGeometry>
        </mxCell>
        <mxCell id="NV5PZMqExWxVKoS1mkhp-49" value="&lt;span style=&quot;font-weight: 400;&quot;&gt;I&lt;sub&gt;E&lt;/sub&gt;&lt;/span&gt;" style="text;html=1;strokeColor=none;fillColor=none;align=center;verticalAlign=middle;whiteSpace=wrap;rounded=0;fontSize=22;fontFamily=Times New Roman;fontColor=default;fontStyle=3;movable=1;resizable=1;rotatable=1;deletable=1;editable=1;locked=0;connectable=1;" vertex="1" parent="NV5PZMqExWxVKoS1mkhp-47">
          <mxGeometry x="2.5" y="9.180000000000007" width="30" height="30" as="geometry" />
        </mxCell>
        <mxCell id="NV5PZMqExWxVKoS1mkhp-50" style="edgeStyle=orthogonalEdgeStyle;shape=connector;rounded=0;orthogonalLoop=1;jettySize=auto;html=1;exitX=1;exitY=0.5;exitDx=0;exitDy=0;exitPerimeter=0;entryX=0.05;entryY=0.409;entryDx=0;entryDy=0;entryPerimeter=0;labelBackgroundColor=default;strokeColor=default;align=center;verticalAlign=middle;fontFamily=Helvetica;fontSize=11;fontColor=default;endArrow=none;endFill=0;" edge="1" parent="1" source="NV5PZMqExWxVKoS1mkhp-1" target="NV5PZMqExWxVKoS1mkhp-8">
          <mxGeometry relative="1" as="geometry">
            <Array as="points">
              <mxPoint x="336" y="390" />
            </Array>
          </mxGeometry>
        </mxCell>
        <mxCell id="NV5PZMqExWxVKoS1mkhp-72" value="" style="rounded=0;whiteSpace=wrap;html=1;strokeWidth=1;align=center;verticalAlign=middle;fontFamily=Helvetica;fontSize=22;fontColor=default;fillColor=none;gradientColor=none;dashed=1;movable=1;resizable=1;rotatable=1;deletable=1;editable=1;locked=0;connectable=1;" vertex="1" parent="1">
          <mxGeometry x="300" y="120" width="310" height="300" as="geometry" />
        </mxCell>
        <mxCell id="NV5PZMqExWxVKoS1mkhp-54" value="" style="group" vertex="1" connectable="0" parent="1">
          <mxGeometry x="346" y="250" width="95" height="90" as="geometry" />
        </mxCell>
        <mxCell id="NV5PZMqExWxVKoS1mkhp-55" value="&lt;font face=&quot;Times New Roman&quot;&gt;&lt;span style=&quot;font-size: 22px;&quot;&gt;+&lt;/span&gt;&lt;/font&gt;" style="text;html=1;align=center;verticalAlign=middle;resizable=0;points=[];autosize=1;strokeColor=none;fillColor=none;fontSize=11;fontFamily=Helvetica;fontColor=default;" vertex="1" parent="NV5PZMqExWxVKoS1mkhp-54">
          <mxGeometry width="40" height="40" as="geometry" />
        </mxCell>
        <mxCell id="NV5PZMqExWxVKoS1mkhp-56" value="&lt;font face=&quot;Times New Roman&quot;&gt;&lt;span style=&quot;font-size: 22px;&quot;&gt;_&lt;/span&gt;&lt;/font&gt;" style="text;html=1;align=center;verticalAlign=middle;resizable=0;points=[];autosize=1;strokeColor=none;fillColor=none;fontSize=11;fontFamily=Helvetica;fontColor=default;" vertex="1" parent="NV5PZMqExWxVKoS1mkhp-54">
          <mxGeometry x="5" y="50" width="30" height="40" as="geometry" />
        </mxCell>
        <mxCell id="NV5PZMqExWxVKoS1mkhp-58" value="&lt;font face=&quot;Times New Roman&quot;&gt;&lt;span style=&quot;font-size: 22px;&quot;&gt;V&lt;sub&gt;BE(on)&lt;/sub&gt;&lt;/span&gt;&lt;/font&gt;" style="text;html=1;align=center;verticalAlign=middle;resizable=0;points=[];autosize=1;strokeColor=none;fillColor=none;fontSize=11;fontFamily=Helvetica;fontColor=default;" vertex="1" parent="NV5PZMqExWxVKoS1mkhp-54">
          <mxGeometry x="14" y="30" width="90" height="40" as="geometry" />
        </mxCell>
        <mxCell id="NV5PZMqExWxVKoS1mkhp-61" value="C&#xa;&#xa;" style="shape=waypoint;sketch=0;size=6;pointerEvents=1;points=[];fillColor=none;resizable=0;rotatable=0;perimeter=centerPerimeter;snapToPoint=1;fontFamily=Times New Roman;fontSize=22;fontColor=default;" vertex="1" parent="1">
          <mxGeometry x="520" y="150" width="20" height="20" as="geometry" />
        </mxCell>
        <mxCell id="NV5PZMqExWxVKoS1mkhp-71" value="&lt;font face=&quot;Times New Roman&quot;&gt;&lt;span style=&quot;font-size: 22px;&quot;&gt;$$\beta I_B$$&lt;br&gt;&lt;/span&gt;&lt;/font&gt;" style="text;html=1;align=center;verticalAlign=middle;resizable=0;points=[];autosize=1;strokeColor=none;fillColor=none;fontSize=11;fontFamily=Helvetica;fontColor=default;" vertex="1" parent="1">
          <mxGeometry x="415" y="240" width="150" height="40" as="geometry" />
        </mxCell>
      </root>
    </mxGraphModel>
  </diagram>
</mxfile>
